<svg version="1.1" viewBox="0.0 0.0 450.0 300.0" fill="none" stroke="none" stroke-linecap="square" stroke-miterlimit="10" xmlns:xlink="http://www.w3.org/1999/xlink" xmlns="http://www.w3.org/2000/svg"><clipPath id="gca3d96adb9_0_0.0"><path d="m0 0l450.0 0l0 300.0l-450.0 0l0 -300.0z" clip-rule="nonzero"/></clipPath><g clip-path="url(#gca3d96adb9_0_0.0)"><path fill="#ffffff" d="m0 0l450.0 0l0 300.0l-450.0 0z" fill-rule="evenodd"/><path fill="#000000" fill-opacity="0.0" d="m60.448864 132.82439l329.1024 0l0 39.496063l-329.1024 0z" fill-rule="evenodd"/><path fill="#000000" d="m153.56721 142.76814l0 18.65625l-1.625 0l-11.984375 -15.140625l0 15.140625l-1.984375 0l0 -18.65625l1.640625 0l12.015625 15.140625l0 -15.140625l1.9375 0zm11.421448 18.796875q-2.03125 0 -3.65625 -0.921875q-1.625 -0.921875 -2.5625 -2.546875q-0.9375 -1.625 -0.9375 -3.6875q0 -2.046875 0.9375 -3.671875q0.9375 -1.625 2.5625 -2.53125q1.625 -0.90625 3.65625 -0.90625q2.015625 0 3.640625 0.90625q1.625 0.90625 2.546875 2.53125q0.921875 1.625 0.921875 3.671875q0 2.0625 -0.921875 3.6875q-0.921875 1.625 -2.546875 2.546875q-1.625 0.921875 -3.640625 0.921875zm0 -1.6875q1.484375 0 2.671875 -0.671875q1.1875 -0.6875 1.84375 -1.9375q0.671875 -1.25 0.671875 -2.859375q0 -1.59375 -0.671875 -2.84375q-0.65625 -1.25 -1.84375 -1.921875q-1.1875 -0.6875 -2.671875 -0.6875q-1.5 0 -2.6875 0.6875q-1.1875 0.671875 -1.875 1.921875q-0.671875 1.25 -0.671875 2.84375q0 1.609375 0.671875 2.859375q0.6875 1.25 1.875 1.9375q1.1875 0.671875 2.6875 0.671875zm18.354034 0.6875q-0.53125 0.484375 -1.3125 0.75q-0.78125 0.25 -1.640625 0.25q-1.96875 0 -3.046875 -1.0625q-1.0625 -1.078125 -1.0625 -3.015625l0 -8.484375l-2.5 0l0 -1.59375l2.5 0l0 -3.078125l1.890625 0l0 3.078125l4.265625 0l0 1.59375l-4.265625 0l0 8.375q0 1.25 0.625 1.90625q0.640625 0.640625 1.8125 0.640625q0.578125 0 1.125 -0.171875q0.546875 -0.1875 0.953125 -0.546875l0.65625 1.359375zm15.97821 1.015625q-2.078125 0 -3.984375 -0.65625q-1.90625 -0.671875 -2.953125 -1.765625l0.78125 -1.515625q1.0 1.015625 2.671875 1.640625q1.6875 0.625 3.484375 0.625q2.5 0 3.75 -0.921875q1.25 -0.921875 1.25 -2.390625q0 -1.109375 -0.6875 -1.78125q-0.671875 -0.671875 -1.65625 -1.03125q-0.984375 -0.359375 -2.734375 -0.78125q-2.109375 -0.53125 -3.375 -1.015625q-1.25 -0.5 -2.140625 -1.515625q-0.890625 -1.015625 -0.890625 -2.75q0 -1.40625 0.75 -2.5625q0.75 -1.171875 2.296875 -1.859375q1.546875 -0.6875 3.828125 -0.6875q1.609375 0 3.140625 0.4375q1.53125 0.4375 2.65625 1.203125l-0.671875 1.578125q-1.171875 -0.765625 -2.515625 -1.15625q-1.328125 -0.390625 -2.609375 -0.390625q-2.453125 0 -3.6875 0.953125q-1.234375 0.9375 -1.234375 2.4375q0 1.109375 0.671875 1.796875q0.6875 0.671875 1.703125 1.03125q1.03125 0.359375 2.765625 0.796875q2.046875 0.5 3.3125 1.0q1.265625 0.484375 2.140625 1.484375q0.890625 1.0 0.890625 2.703125q0 1.421875 -0.765625 2.578125q-0.75 1.15625 -2.328125 1.84375q-1.578125 0.671875 -3.859375 0.671875zm16.581024 -0.015625q-2.03125 0 -3.65625 -0.921875q-1.625 -0.921875 -2.5625 -2.546875q-0.9375 -1.625 -0.9375 -3.6875q0 -2.046875 0.9375 -3.671875q0.9375 -1.625 2.5625 -2.53125q1.625 -0.90625 3.65625 -0.90625q2.015625 0 3.640625 0.90625q1.625 0.90625 2.546875 2.53125q0.921875 1.625 0.921875 3.671875q0 2.0625 -0.921875 3.6875q-0.921875 1.625 -2.546875 2.546875q-1.625 0.921875 -3.640625 0.921875zm0 -1.6875q1.484375 0 2.671875 -0.671875q1.1875 -0.6875 1.84375 -1.9375q0.671875 -1.25 0.671875 -2.859375q0 -1.59375 -0.671875 -2.84375q-0.65625 -1.25 -1.84375 -1.921875q-1.1875 -0.6875 -2.671875 -0.6875q-1.5 0 -2.6875 0.6875q-1.1875 0.671875 -1.875 1.921875q-0.671875 1.25 -0.671875 2.84375q0 1.609375 0.671875 2.859375q0.6875 1.25 1.875 1.9375q1.1875 0.671875 2.6875 0.671875zm23.509827 1.703125q-2.078125 0 -3.984375 -0.65625q-1.90625 -0.671875 -2.953125 -1.765625l0.78125 -1.515625q1.0 1.015625 2.671875 1.640625q1.6875 0.625 3.484375 0.625q2.5 0 3.75 -0.921875q1.25 -0.921875 1.25 -2.390625q0 -1.109375 -0.6875 -1.78125q-0.671875 -0.671875 -1.65625 -1.03125q-0.984375 -0.359375 -2.734375 -0.78125q-2.109375 -0.53125 -3.375 -1.015625q-1.25 -0.5 -2.140625 -1.515625q-0.890625 -1.015625 -0.890625 -2.75q0 -1.40625 0.75 -2.5625q0.75 -1.171875 2.296875 -1.859375q1.546875 -0.6875 3.828125 -0.6875q1.609375 0 3.140625 0.4375q1.53125 0.4375 2.65625 1.203125l-0.671875 1.578125q-1.171875 -0.765625 -2.515625 -1.15625q-1.328125 -0.390625 -2.609375 -0.390625q-2.453125 0 -3.6875 0.953125q-1.234375 0.9375 -1.234375 2.4375q0 1.109375 0.671875 1.796875q0.6875 0.671875 1.703125 1.03125q1.03125 0.359375 2.765625 0.796875q2.046875 0.5 3.3125 1.0q1.265625 0.484375 2.140625 1.484375q0.890625 1.0 0.890625 2.703125q0 1.421875 -0.765625 2.578125q-0.75 1.15625 -2.328125 1.84375q-1.578125 0.671875 -3.859375 0.671875zm16.581055 -0.015625q-2.03125 0 -3.65625 -0.921875q-1.625 -0.921875 -2.5625 -2.546875q-0.9375 -1.625 -0.9375 -3.6875q0 -2.046875 0.9375 -3.671875q0.9375 -1.625 2.5625 -2.53125q1.625 -0.90625 3.65625 -0.90625q2.0156097 0 3.6406097 0.90625q1.625 0.90625 2.546875 2.53125q0.921875 1.625 0.921875 3.671875q0 2.0625 -0.921875 3.6875q-0.921875 1.625 -2.546875 2.546875q-1.625 0.921875 -3.6406097 0.921875zm0 -1.6875q1.4843597 0 2.6718597 -0.671875q1.1875 -0.6875 1.84375 -1.9375q0.671875 -1.25 0.671875 -2.859375q0 -1.59375 -0.671875 -2.84375q-0.65625 -1.25 -1.84375 -1.921875q-1.1875 -0.6875 -2.6718597 -0.6875q-1.5 0 -2.6875 0.6875q-1.1875 0.671875 -1.875 1.921875q-0.671875 1.25 -0.671875 2.84375q0 1.609375 0.671875 2.859375q0.6875 1.25 1.875 1.9375q1.1875 0.671875 2.6875 0.671875zm16.79152 1.6875q-2.078125 0 -3.71875 -0.90625q-1.640625 -0.90625 -2.578125 -2.546875q-0.9375 -1.640625 -0.9375 -3.703125q0 -2.046875 0.9375 -3.671875q0.9375 -1.625 2.578125 -2.53125q1.640625 -0.90625 3.71875 -0.90625q1.8125 0 3.234375 0.703125q1.421875 0.703125 2.25 2.0625l-1.40625 0.96875q-0.703125 -1.046875 -1.765625 -1.5625q-1.0625 -0.515625 -2.3125 -0.515625q-1.515625 0 -2.734375 0.6875q-1.21875 0.671875 -1.90625 1.921875q-0.671875 1.25 -0.671875 2.84375q0 1.625 0.671875 2.875q0.6875 1.234375 1.90625 1.921875q1.21875 0.671875 2.734375 0.671875q1.25 0 2.3125 -0.5q1.0625 -0.515625 1.765625 -1.546875l1.40625 0.953125q-0.828125 1.359375 -2.265625 2.078125q-1.4375 0.703125 -3.21875 0.703125zm9.194916 -14.15625l1.890625 0l0 14.015625l-1.890625 0l0 -14.015625zm0.953125 -3.078125q-0.578125 0 -0.984375 -0.390625q-0.40625 -0.40625 -0.40625 -0.96875q0 -0.53125 0.40625 -0.921875q0.40625 -0.40625 0.984375 -0.40625q0.59375 0 0.984375 0.390625q0.40625 0.390625 0.40625 0.921875q0 0.578125 -0.40625 0.984375q-0.390625 0.390625 -0.984375 0.390625zm11.123627 2.96875q2.75 0 4.203125 1.375q1.46875 1.375 1.46875 4.0625l0 8.6875l-1.8125 0l0 -2.1875q-0.640625 1.09375 -1.875 1.71875q-1.234375 0.609375 -2.953125 0.609375q-2.34375 0 -3.734375 -1.125q-1.375 -1.125 -1.375 -2.953125q0 -1.796875 1.28125 -2.890625q1.296875 -1.09375 4.125 -1.09375l4.453125 0l0 -0.84375q0 -1.8125 -1.015625 -2.75q-1.015625 -0.953125 -2.953125 -0.953125q-1.328125 0 -2.5625 0.4375q-1.21875 0.4375 -2.109375 1.203125l-0.84375 -1.40625q1.0625 -0.90625 2.546875 -1.390625q1.5 -0.5 3.15625 -0.5zm-0.671875 12.765625q1.609375 0 2.75 -0.734375q1.140625 -0.734375 1.703125 -2.125l0 -2.28125l-4.390625 0q-3.609375 0 -3.609375 2.5q0 1.234375 0.9375 1.9375q0.9375 0.703125 2.609375 0.703125zm11.492737 -18.421875l1.890625 0l0 19.78125l-1.890625 0l0 -19.78125z" fill-rule="nonzero"/><path fill="#ff3c3c" d="m312.23486 161.56502q-0.59375 0 -1.015625 -0.421875q-0.40625 -0.4375 -0.40625 -1.046875q0 -0.625 0.40625 -1.03125q0.421875 -0.40625 1.015625 -0.40625q0.578125 0 1.0 0.40625q0.4375 0.40625 0.4375 1.03125q0 0.609375 -0.4375 1.046875q-0.421875 0.421875 -1.0 0.421875z" fill-rule="nonzero"/></g></svg>